<svg width="40" height="40" viewBox="0 0 40 40" fill="none" xmlns="http://www.w3.org/2000/svg">
<path fill-rule="evenodd" clip-rule="evenodd" d="M16.5667 21.0767L12.82 19.8283C8.89834 18.5217 6.93668 17.8683 6.93668 16.6667C6.93668 15.4667 8.89834 14.8117 12.82 13.505L27.0083 8.77501C29.7683 7.85501 31.1483 7.39501 31.8767 8.12334C32.605 8.85168 32.145 10.2317 31.2267 12.99L26.495 27.18C25.1883 31.1017 24.535 33.0633 23.3333 33.0633C22.1333 33.0633 21.4783 31.1017 20.1717 27.18L18.9217 23.435L26.1783 16.1783C26.4819 15.864 26.6499 15.443 26.6461 15.006C26.6423 14.569 26.4671 14.151 26.158 13.842C25.849 13.533 25.431 13.3577 24.994 13.3539C24.557 13.3501 24.136 13.5181 23.8217 13.8217L16.5667 21.0767Z" fill="white"/>
</svg>
